<?xml version="1.0" encoding="iso-8859-1"?>
<!-- Generator: Adobe Illustrator 16.0.3, SVG Export Plug-In . SVG Version: 6.00 Build 0)  -->
<!DOCTYPE svg PUBLIC "-//W3C//DTD SVG 1.1//EN" "http://www.w3.org/Graphics/SVG/1.1/DTD/svg11.dtd">
<svg version="1.1" id="Layer_1" xmlns="http://www.w3.org/2000/svg" xmlns:xlink="http://www.w3.org/1999/xlink" x="0px" y="0px"
	 width="100px" height="100px" viewBox="0 0 100 100" style="enable-background:new 0 0 100 100;" xml:space="preserve">
<g>
	<g>
		<defs>
			<circle id="SVGID_1_" cx="49.662" cy="49.822" r="50"/>
		</defs>
		<clipPath id="SVGID_2_">
			<use xlink:href="#SVGID_1_"  style="overflow:visible;"/>
		</clipPath>
		<circle style="clip-path:url(#SVGID_2_);fill:#004B55;" cx="49.662" cy="49.822" r="53.621"/>
	</g>
	<g>
		<defs>
			<circle id="SVGID_3_" cx="49.662" cy="49.822" r="50"/>
		</defs>
		<clipPath id="SVGID_4_">
			<use xlink:href="#SVGID_3_"  style="overflow:visible;"/>
		</clipPath>
		<g style="clip-path:url(#SVGID_4_);">
			<polygon style="fill:#E6E6E6;" points="85.537,66 13.787,66 19.168,36 80.158,36 			"/>
			<path style="fill:#F2F2F2;" d="M84.697,61.333C70.363,50.21,52.943,43,33.602,36H19.168l-5.381,30h71.75L84.697,61.333z"/>
			<g>
				<path style="fill:#00A99D;" d="M45.92,42.939c-0.047,1.86-1.608,3.382-3.47,3.382H28.177c-1.861,0-3.14-1.503-2.841-3.34
					l0.021-0.137c0.299-1.837,2.065-3.34,3.927-3.34h13.34c1.861,0,3.345,1.522,3.298,3.382L45.92,42.939z"/>
			</g>
			<g>
				<path style="fill:#B3B3B3;" d="M73.986,42.982c0.299,1.837-0.979,3.34-2.842,3.34H56.87c-1.861,0-3.421-1.522-3.468-3.382
					L53.4,42.888c-0.045-1.86,1.439-3.382,3.302-3.382H70.04c1.86,0,3.628,1.503,3.926,3.34L73.986,42.982z"/>
			</g>
			<g>
				<path style="fill:#004B55;" d="M45.646,56.572c-0.038,1.859-1.591,3.383-3.452,3.383H26.493c-1.861,0-3.186-1.51-2.942-3.354
					l0.373-2.834c0.243-1.846,1.964-3.354,3.825-3.354h14.637c1.861,0,3.354,1.522,3.315,3.383L45.646,56.572z"/>
			</g>
			<g>
				<path style="fill:#B3B3B3;" d="M75.771,56.602c0.244,1.844-1.08,3.354-2.94,3.354H57.13c-1.86,0-3.415-1.521-3.452-3.383
					l-0.057-2.777c-0.037-1.859,1.454-3.383,3.314-3.383h14.638c1.86,0,3.583,1.51,3.825,3.354L75.771,56.602z"/>
			</g>
			<polygon style="fill:#B3B3B3;" points="82.146,93 17.176,93 13.973,66 85.35,66 			"/>
			<polygon style="fill:#CCCCCC;" points="82.146,93 17.176,93 13.973,66 85.35,66 			"/>
			<polygon style="fill:#666666;" points="77.691,93 21.633,93 19.295,70 80.029,70 			"/>
			<polygon style="fill:#006837;" points="81.127,62.607 61.77,96.831 43.562,87.893 57.73,51.125 			"/>
			<path style="fill:#39B54A;" d="M45.508,82.844c1.809,0.221,3.641,0.368,5.508,0.368c7.795,0,15.129-1.971,21.531-5.438
				l8.58-15.166L57.73,51.125L45.508,82.844z"/>
			<g>
				<path style="fill:#FFC52E;" d="M78.738,86.548c1.248-1.916-2.914-6.228-9.094-9.438c-6.177-3.209-11.996-4.088-12.849-1.965
					c-0.252,0.627-1.162,2.779-1.401,3.377c-0.775,1.934,3.336,5.905,8.965,8.834c5.631,2.926,11.244,4.008,12.379,2.262
					C77.092,89.075,78.369,87.117,78.738,86.548z"/>
				<path style="fill:#FFDF2E;" d="M77.445,85.409c-0.807,1.2-5.551,0.007-10.623-2.628c-5.068-2.637-8.777-5.836-8.271-7.19
					c0.531-1.396,5.324-0.298,10.695,2.494C74.619,80.877,78.279,84.17,77.445,85.409z"/>
			</g>
			<polygon style="fill:#B3B3B3;" points="78.686,102 20.639,102 18.334,87 80.99,87 			"/>
			<g>
				<path style="fill:#FFC52E;" d="M54.116,55.883c-1.037-2.477-7.971-1.283-15.164,2.594c-7.191,3.877-11.886,8.945-10.39,11.174
					c0.443,0.658,1.933,2.961,2.354,3.589c1.368,2.03,7.932,0.663,14.494-2.87c6.557-3.532,11.306-8.266,10.361-10.521
					C55.479,59.148,54.422,56.616,54.116,55.883z"/>
				<path style="fill:#FFDF2E;" d="M52.156,56.385c0.633,1.576-3.657,5.393-9.562,8.575c-5.905,3.181-11.456,4.666-12.434,3.276
					c-1.008-1.437,3.223-5.359,9.478-8.731C45.89,56.136,51.503,54.757,52.156,56.385z"/>
			</g>
			<polygon style="fill:#CCCCCC;" points="80.193,36 19.131,36 20.123,16 79.197,16 			"/>
			<polygon style="fill:#004B55;" points="76.93,33 22.389,33 23.281,19 76.047,19 			"/>
			<g>
				<path style="fill:#FFFFFF;" d="M49,31v-1.062c-1-0.012-1.424-0.236-1.859-0.546l0.319-0.834c0.449,0.299,1.104,0.536,1.8,0.536
					c0.885,0,1.485-0.511,1.485-1.219c0-0.683-0.484-1.106-1.402-1.479c-1.27-0.497-2.136-1.068-2.136-2.149
					c0-1.032,0.793-1.813,1.793-2.001V21h1v1.194c1,0.025,1.227,0.224,1.588,0.437l-0.329,0.819
					c-0.26-0.149-0.776-0.422-1.573-0.422c-0.953,0-1.32,0.571-1.32,1.068c0,0.647,0.459,0.97,1.541,1.417
					c1.28,0.522,1.991,1.167,1.991,2.273c0,0.982-0.897,1.903-1.897,2.114V31H49z"/>
			</g>
		</g>
	</g>
</g>
<g>
	<path style="fill:#FFC52E;" d="M37.867,32.611c2.455-2.381-2.181-10.045-10.12-16.772C19.812,9.114,11.621,5.904,9.675,8.713
		C9.1,9.545,7.063,12.38,6.514,13.169C4.742,15.735,9.41,22.881,16.65,29.02c7.233,6.13,15.05,9.562,17.288,7.395
		C34.629,35.745,37.141,33.314,37.867,32.611z"/>
	<path style="fill:#FFDF2E;" d="M36.362,30.52c-1.575,1.482-8.094-1.83-14.608-7.353C15.239,17.644,10.9,11.753,12.091,9.949
		c1.234-1.861,7.853,1.331,14.756,7.18C33.744,22.976,37.987,28.989,36.362,30.52z"/>
</g>
</svg>
