<?xml version="1.0" encoding="iso-8859-1"?>
<!-- Generator: Adobe Illustrator 16.0.3, SVG Export Plug-In . SVG Version: 6.00 Build 0)  -->
<!DOCTYPE svg PUBLIC "-//W3C//DTD SVG 1.1//EN" "http://www.w3.org/Graphics/SVG/1.1/DTD/svg11.dtd">
<svg version="1.1" id="Layer_1" xmlns="http://www.w3.org/2000/svg" xmlns:xlink="http://www.w3.org/1999/xlink" x="0px" y="0px"
	 width="260px" height="100px" viewBox="0 0 260 100" style="enable-background:new 0 0 260 100;" xml:space="preserve">
<g>
	<path style="fill:#FBCC22;" d="M99.548,50.977c-3.411,0-6.396-2.668-7.117-6.341c-0.765-3.954,1.405-7.597,5.524-9.265
		c0.938-0.374,1.846-0.549,2.804-0.549c2.864,0,5.477,1.713,6.617,4.353c1.314,2.895,0.645,6.17-1.736,8.763
		C103.369,50.459,101.098,50.977,99.548,50.977z"/>
	<path style="fill:#FFFFFF;" d="M39.742,80.061c-3.328,0-3.737-2.265-3.788-2.729c-0.278-2.807-0.506-5.629-0.685-8.432
		c-2.221-0.205-4.415-0.558-6.538-1.043c-1.068-0.25-2.179-1.282-1.973-2.975c0.007-0.087,1.882-8.205,6.014-8.205
		c0.237,0,0.466,0.024,0.702,0.068c0.502,0.113,1.01,0.229,1.52,0.333c0.065-7.819,0.718-15.347,1.901-22.38
		c0.058-0.414,0.174-0.771,0.364-1.081c-8.466,3.203-16.839,9.567-23.724,18.325c-1.709,2.166-2.901,2.166-3.358,2.166
		c-0.781,0-1.538-0.356-2.039-0.967c-0.57-0.701-0.743-1.576-0.528-2.633c0.456-2.315,1.87-4.403,2.711-5.428
		c6.468-8.252,17.112-18.986,30.834-23.294c3.877-1.213,8.036-1.849,12.068-1.849c7.368,0,13.73,2.075,18.427,5.99
		c5.411,4.533,6.901,11.385,4.195,19.057c0.143-0.005,0.22-0.007,0.344-0.007c0.503,0,0.973,0.036,1.388,0.138
		c1.332,0.275,2.051,1.047,2.361,1.828c1.378-0.491,2.761-0.802,4.124-0.802c2.179,0,3.973,0.793,5.224,2.277
		c1.809,2.086,2.875,5.075,3.15,8.412c0.304-0.643,0.6-1.359,0.772-2.139c0.961-3.588,7.323-3.693,7.423-3.693
		c0.558,0,2.302,0,3.325,1.309c0.119,0.125,0.195,0.252,0.308,0.389c0.045-0.793,0.098-1.602,0.155-2.413
		c0.252-2.692,3.293-3.832,5.806-4.211c-0.668-0.179-1.222-0.585-1.567-1.188c-0.302-0.402-1.061-1.642,0.557-4.868l0.114-0.282
		c0.7-1.405,1.79-3.508,3.648-4.266c6.451-2.586,13.331-4.529,20.998-5.928c0.184-1.646,0.365-3.312,0.506-4.953
		c0.388-3.432,5.281-4.347,7.793-4.347c0.975,0,2.203,0.119,3.076,1.064c0.506,0.578,0.748,1.327,0.68,2.071
		c-0.168,1.488-0.352,3.028-0.463,4.569c6.358-0.635,13.311-0.999,22.113-1.137l0,0c0.963,0,1.859,0.496,2.326,1.312
		c0.705,1.223,0.303,3.155-1.188,5.73l-0.162,0.245c-0.645,1.236-1.958,3.543-4.245,3.574c-0.521,0.01-1.045,0.019-1.612,0.023
		c0.072,0.236,0.068,0.481-0.013,0.742c0,0.074-1.134,4.837-3.517,7.029c0.701,0.372,1.145,0.907,1.389,1.477
		c1.318-0.491,2.746-0.802,4.062-0.802c2.182,0,4.021,0.793,5.285,2.277c1.262,1.489,2.18,3.434,2.695,5.645
		c0.699-1.42,1.232-2.851,1.57-4.229c0.947-3.611,7.375-3.715,7.436-3.715c0.559,0,2.288,0,3.314,1.306
		c0.584,0.699,0.779,1.588,0.584,2.457c-0.752,3.184-0.854,6.665-0.826,9.314c0.068,3.619,0.213,7.703,1.865,10.555
		c0.01-0.04,0.02-0.073,0.022-0.096c1.112-3.332,1.263-6.995,1.394-10.48c-0.031-1.164-0.014-2.295,0.069-3.304
		c0.371-3.593,5.882-4.418,7.808-4.418c0.871,0,2.088,0.108,2.938,1c0.518,0.553,0.786,1.243,0.77,1.991
		c-0.014,0.828-0.021,1.697-0.031,2.605l-0.012,0.911c0.183,2.368,0.703,4.827,1.601,7.149c0.553,1.518,1.119,2.797,1.729,3.787
		c0.244-1.297,0.358-2.697,0.412-4.265c0.098-2.589-0.011-5.2-0.281-7.696c-0.139-1.65-0.317-2.89-0.519-4.024
		c-0.015-0.086-0.022-0.158-0.046-0.254c-0.132-0.529-0.279-1.229-0.202-1.992c0.423-3.22,5.591-4.519,7.704-4.519
		c2.809,0,3.549,1.819,3.729,2.393c0.289,1.049,0.477,2.07,0.654,3.061c0.053,0.334,0.102,0.652,0.147,0.971l0.071,0.291
		c0.041,0.217,0.086,0.521,0.125,0.666c0.012,0.015,0.394,0.217,0.511,0.272c0.081-1.177,0.169-2.349,0.259-3.52
		c0.352-3.453,5.256-4.381,7.784-4.381c0.978,0,2.204,0.142,3.067,1.056c0.405,0.478,0.649,1.08,0.674,1.696
		c0.354-0.397,0.678-0.813,1.047-1.193c2.337-2.676,6.164-3.163,8.215-3.206l0.167-0.001c5.7,0,6.634,7.751,7.058,11.079
		l0.055,0.531c0.431,3.285,0.64,6.6,0.607,9.898c0.154-0.051,0.329-0.126,0.51-0.177c1.51-0.575,2.762-0.84,3.855-0.84
		c0.975,0,1.838,0.233,2.553,0.663c0.965,0.621,1.471,1.66,1.369,2.753c-0.154,1.479-1.417,2.679-3.793,3.559
		c-1.934,0.716-4.49,2.448-5.279,3.91c0,0.009-0.01,0.024-0.027,0.034c-0.898,3.855-7.428,3.89-7.711,3.89
		c-0.986,0-2.238-0.123-3.084-1.089c-0.506-0.57-0.734-1.35-0.611-2.102c0.762-5.057,0.865-10.248,0.402-15.414l-0.084-1.09
		c-0.021-0.438-0.064-0.873-0.127-1.344c-0.104,0.23-0.211,0.438-0.338,0.663c-2.459,4.995-3.744,10.345-3.887,15.892
		c-0.053,3.609-5.678,4.728-7.744,4.728c-3.193,0-3.699-2.196-3.759-2.637c-0.769-4.976-1.222-9.81-1.336-14.632
		c-0.073,0.002-0.122,0.008-0.171,0.012c-0.035,1.732-0.191,3.354-0.422,4.913c-0.973,6.739-4.396,10.524-10.48,11.567
		c-0.697,0.119-1.352,0.17-2.035,0.17c-3.022,0-5.721-1.168-7.938-3.428c-1.779,1.469-4.035,2.469-6.688,2.941
		c-1.154,0.208-2.168,0.312-3.135,0.312c-2.283,0-4.211-0.59-5.675-1.766c-3.099-2.405-4.349-6.114-4.877-9.953
		c-0.677,0.355-1.384,0.67-2.099,0.975c-1.002,3.149-2.418,5.541-4.264,7.307c-2.836,2.63-7.04,4.211-11.273,4.211
		c-1.369,0-2.66-0.148-3.896-0.475c-3.133-0.763-5.739-2.563-7.501-5.146c-0.424,0.367-0.73,0.728-0.979,1.077
		c-0.008,0.861-0.402,1.709-1.021,2.375c-1.612,1.643-4.989,2.25-6.737,2.25c-3.51,0-3.756-2.411-3.766-2.895
		c-0.005-0.188-0.011-0.377-0.016-0.574c-0.092,0.074-0.137,0.136-0.188,0.197c-1.683,2.918-7.108,2.948-7.361,2.948
		c-0.985,0-2.223-0.123-3.08-1.089c-0.505-0.574-0.737-1.352-0.602-2.104c0.753-5.053,0.854-10.244,0.391-15.41l-0.08-1.077
		c-0.021-0.446-0.062-0.884-0.142-1.356c-0.093,0.229-0.18,0.438-0.324,0.664c-2.463,4.998-3.743,10.348-3.888,15.891
		c-0.051,3.61-5.676,4.729-7.75,4.729c-1.631,0-2.569-0.605-3.088-1.236c-1.861,0.733-3.753,1.109-5.595,1.109l-0.143-0.001
		c-3.663-0.024-6.343-2.433-7.348-6.582c-0.37-1.669-0.685-3.462-0.792-5.371c-0.425,0.204-0.796,0.372-1.236,0.558
		c-0.997,3.15-2.418,5.541-4.295,7.308c-2.787,2.63-7.034,4.211-11.272,4.211c-1.329,0-2.66-0.147-3.904-0.474
		c-3.501-0.863-6.321-2.971-8.08-6.102c-1.43-2.482-2.137-5.561-2.126-8.831c-3.39,1.976-7.889,3.338-13.752,4.163
		c-0.193,0.02-0.395,0.042-0.534,0.082c0.123,2.148,0.318,4.314,0.541,6.428c0.078,0.938-0.226,1.862-0.908,2.617
		C44.949,79.486,41.295,80.061,39.742,80.061z M153.645,64.023c0.191,2.729,0.83,4.824,1.974,6.047
		c0.721,0.809,1.497,1.373,2.289,1.674c0.176,0.068,0.339,0.105,0.467,0.145c0.625-0.766,1.155-1.729,1.628-2.834
		c-0.646-0.199-1.229-0.443-1.824-0.734C156.305,67.355,154.709,65.865,153.645,64.023z M72.862,63.896
		c0.051,2.611,0.758,5.127,2.524,6.696c0.739,0.642,1.555,1.069,2.332,1.285c0.053-0.081,0.095-0.159,0.176-0.229
		c0.494-0.789,0.91-1.67,1.328-2.614c-0.58-0.206-1.186-0.438-1.715-0.716C75.549,67.338,73.927,65.781,72.862,63.896z
		 M104.021,57.521c-0.462,3.256-0.546,6.889-0.11,10.305l0.003,0.111c0.055,0.514,0.186,1.362,0.368,2.182
		c0.045-0.071,0.088-0.117,0.138-0.189C104.064,65.74,103.899,61.626,104.021,57.521z M46.927,31.354
		c0.257,0.178,0.488,0.365,0.667,0.604c0.578,0.672,0.818,1.543,0.652,2.401c-1.215,7.268-1.787,15.147-1.738,23.431
		c4.791-0.327,9.439-1.408,13.604-3.158c2.043-0.868,3.661-2.047,5.177-3.794c0.499-0.576,0.907-1.064,1.223-1.542
		c0.268-0.369,0.442-0.602,0.545-0.843c0.198-0.3,0.348-0.531,0.466-0.891c0.241-0.534,0.436-1.063,0.544-1.564
		c2.437-8.733-7.375-12.556-9.367-13.218c-2.986-1.004-6.123-1.537-9.288-1.537C48.598,31.244,47.742,31.297,46.927,31.354z
		 M144.223,44.182c-0.238,3.907-0.379,7.732-0.521,11.462c1.917-4.472,5.099-8.03,8.505-9.528c0.308-0.141,0.653-0.269,0.944-0.382
		C150.266,45.09,147.294,44.557,144.223,44.182z M125.373,44.256c5.107,0,6.386,6.221,6.885,9.896
		c0.16-3.504,0.36-7.042,0.598-10.653c-0.186,0-0.371,0-0.516,0c-5.328,0-10.811,0.396-16.25,1.176l-0.191,0.043l-0.242,0.005
		c-0.117,0-0.277-0.01-0.383-0.043c-1.128,0.41-2.194,0.814-3.28,1.239c0.104-0.012,0.156-0.015,0.208-0.015
		c0.978,0,2.204,0.142,3.072,1.056c0.398,0.478,0.641,1.079,0.706,1.694c0.317-0.396,0.642-0.812,1.011-1.191
		c2.337-2.676,6.164-3.163,8.21-3.206L125.373,44.256z"/>
	<g>
		<path style="fill:#0A696E;" d="M81.922,53.27c-0.165-0.291-0.312-0.569-0.521-0.83c-1.896,3.397-1.245,8.199,1.941,10.597
			c0.108-1.284,0.169-2.542,0.06-3.755C83.27,57.266,82.929,55.049,81.922,53.27z"/>
		<path style="fill:#0A696E;" d="M80.487,51.607c-0.261-0.139-0.453-0.183-0.505-0.183c-0.123,0,0.05,0.192,0.6,0.241
			C80.531,51.629,80.504,51.619,80.487,51.607z"/>
		<path style="fill:#0A696E;" d="M89.367,63.428c-0.12,0.033-0.146,0.045-0.146,0.045S89.272,63.452,89.367,63.428z"/>
		<path style="fill:#0A696E;" d="M252.432,63.295c-1.111-0.713-2.406-1.078-3.895-1.078c-0.613,0-1.243,0.068-1.887,0.188
			c-0.107-2.292-0.271-4.589-0.602-6.869l-0.055-0.521c-0.199-1.568-0.505-4.178-1.323-6.572c-2.162-6.052-6.483-6.72-8.22-6.72
			c-0.059,0-0.157,0.001-0.229,0.003c-2.141,0.068-5.869,0.541-8.783,2.864c-1.575-1.192-3.461-1.192-4.158-1.192
			c-2.377,0-5.866,0.605-8.109,2.536c-0.998-1.299-2.697-2.299-5.172-2.3c-2.868,0-9.247,1.606-10.154,6.365
			c-1.533-1.072-3.257-1.072-3.908-1.072c-2.504,0-5.912,0.752-8.108,2.643c0.051-0.37,0.104-0.74,0.228-1.104
			c0.354-1.639,0.006-3.306-1.019-4.612c-1.187-1.488-3.013-2.24-5.33-2.24c-0.298,0-6.753,0.037-9.176,3.961
			c-0.191-0.264-0.377-0.521-0.607-0.777c-1.718-2.046-4.29-3.164-7.204-3.164c-0.363,0-0.772,0.017-1.127,0.045
			c0.284-0.589,1-2.06,1.391-3.522c3.406-0.354,5.125-3.472,5.927-4.837c0.04-0.085,0.065-0.166,0.099-0.211
			c0.244-0.435,0.717-1.478,0.967-2.075c0.58-1.423,1.568-3.772,0.215-6.188c-0.92-1.583-2.629-2.564-4.43-2.565h-0.076
			l-0.049,0.001c-7.447,0.122-13.671,0.416-19.289,0.894c0.051-0.529,0.143-1.03,0.184-1.525c0.164-1.464-0.305-2.933-1.295-4.032
			c-1.703-1.881-4.135-1.881-4.961-1.881c-3.529-0.001-9.689,1.376-10.286,6.588c-0.095,1.023-0.224,2.074-0.304,3.097
			c-7.121,1.381-13.587,3.273-19.604,5.716c-1.626,0.641-2.762,1.826-3.57,2.999c-1.854-2.381-4.664-3.846-7.749-3.846h-0.001
			c-1.27,0-2.527,0.253-3.754,0.746c-4.345,1.74-8.205,6.15-7.042,12.079c0.026,0.209,0.067,0.388,0.163,0.593
			c-1.659-1.341-3.771-2.074-6.063-2.074c-1.071,0-2.136,0.145-3.173,0.396c-0.505-0.468-1.141-0.835-1.832-1.096
			c1.733-7.489-0.293-14.334-5.781-18.94c-5.209-4.301-12.119-6.584-20.053-6.585c-4.283,0-8.701,0.694-12.826,1.971
			c-14.344,4.505-25.354,15.613-32.056,24.14c-0.961,1.218-2.653,3.675-3.215,6.503c-0.436,2.283,0.33,3.805,1.067,4.716
			c0.979,1.208,2.444,1.88,3.983,1.88c1.936,0,3.662-1.011,5.328-3.103c4.451-5.679,9.795-10.49,15.426-13.943
			c0.97-0.592,1.938-1.148,2.902-1.651c-0.723,5.22-1.169,10.637-1.303,16.232c-3.877,0.147-5.832,4.036-6.505,5.338
			c-0.128,0.298-1.534,3.106-1.767,5.106c-0.353,3.084,1.696,5.203,3.916,5.721c1.518,0.349,3.132,0.647,4.699,0.849
			c0.166,2.147,0.357,4.294,0.588,6.425c0.162,1.854,1.729,5.002,6.279,5.002c2.021,0,6.388-0.686,8.7-3.233
			c1.173-1.281,1.699-2.89,1.518-4.556c-0.113-1.334-0.26-2.677-0.343-4.033c3.627-0.605,6.712-1.442,9.383-2.51
			c0.391,2.256,1.112,4.367,2.148,6.215c2.132,3.736,5.45,6.266,9.691,7.297c1.412,0.356,2.941,0.555,4.481,0.555
			c4.933,0,9.709-1.793,12.992-4.902c0.908-0.828,1.687-1.787,2.4-2.861c1.463,4.761,5.003,7.592,9.527,7.639h0.166
			c1.71,0,3.405-0.255,5.09-0.784c0.892,0.558,2.104,0.91,3.593,0.91c2.618,0,7.446-1.092,9.416-4.231
			c0.201,0.737,0.553,1.438,1.061,2.035c1.687,1.958,4.155,1.958,4.998,1.958c0.556,0,3.798-0.073,6.562-1.473
			c0.977,1.004,2.486,1.772,4.768,1.772c0.233,0,5.625-0.03,8.516-2.99c0.267-0.283,0.504-0.578,0.723-0.873
			c1.775,1.529,3.934,2.644,6.367,3.248c1.441,0.355,2.956,0.554,4.527,0.554c4.941,0,9.662-1.793,12.998-4.901
			c1.322-1.272,2.47-2.785,3.41-4.603c0.896,2.366,2.293,4.674,4.51,6.437c1.943,1.508,4.375,2.272,7.27,2.272
			c1.141,0,2.262-0.104,3.588-0.33c2.258-0.414,4.291-1.168,6.094-2.235c2.34,1.799,5.135,2.758,8.076,2.758
			c0.803,0,1.65-0.078,2.471-0.219c3.121-0.518,6.666-1.929,9.289-5.296c0.052,0.437,0.125,0.892,0.203,1.353
			c0.334,2.201,2.203,4.766,6.241,4.766c2.613,0,7.439-1.092,9.409-4.232c0.202,0.74,0.555,1.438,1.061,2.037
			c1.69,1.959,4.162,1.959,5.002,1.959c3.992,0,8.854-1.449,10.072-5.436c0.49-0.665,2.193-1.971,3.838-2.58
			c3.309-1.24,5.151-3.145,5.414-5.646C255.184,66.383,254.223,64.421,252.432,63.295z M98.914,37.704
			c0.607-0.257,1.263-0.374,1.845-0.374c3.862,0,6.602,4.751,3.155,8.752c-0.252,0.237-0.504,0.479-0.718,0.749
			c-1.249,1.14-2.49,1.617-3.648,1.617C94.877,48.448,92.062,40.477,98.914,37.704z M247.782,69.364
			c-2.281,0.827-5.454,2.872-6.632,5.083c-0.047,0.103-0.104,0.201-0.168,0.294c-0.012,0.065-0.031,0.163-0.059,0.258
			c-0.188,1.386-3.471,2.036-5.277,2.036c-0.723,0-1.215-0.09-1.197-0.307c0.773-5.272,0.932-10.705,0.433-16.01
			c-0.228-2.628-0.399-6.167-1.53-8.9c-1.391,1.981-2.726,4.058-3.789,6.252c-2.65,5.348-4.051,11.002-4.145,16.96
			c-0.023,1.187-3.354,2.25-5.242,2.25c-0.695,0-1.227-0.156-1.273-0.519c-0.922-5.773-1.336-11.494-1.311-17.244
			c-1.134,0.33-2.347,0.518-3.557,0.518c-0.551,0-1.092-0.034-1.645-0.139c0.063,2.41-0.064,4.812-0.383,7.203
			c-0.752,5.143-3.062,8.521-8.419,9.424c-0.562,0.104-1.101,0.16-1.619,0.16c-3.39,0-5.956-1.94-7.774-4.742
			c-1.691,2.438-4.383,3.771-7.301,4.293c-0.824,0.145-1.744,0.261-2.682,0.261c-1.482,0-2.963-0.288-4.143-1.212
			c-3.604-2.828-4.12-8.406-4.239-12.618c-0.005-0.104-0.005-0.22-0.009-0.331c-0.266,0.329-0.577,0.631-0.854,0.957
			c-0.031,0.104-0.115,0.227-0.297,0.354c-0.261,0.282-0.63,0.525-1.013,0.732c-1.229,0.785-2.646,1.475-4.144,1.967
			c-0.748,2.805-1.939,5.516-3.941,7.401c-2.444,2.298-6.072,3.521-9.549,3.521c-1.141,0-2.277-0.127-3.312-0.39
			c-3.663-0.896-6.007-3.324-7.251-6.405c-1.74,1.02-3.48,2.463-4.279,3.977c-0.011,0.052-0.033,0.078-0.057,0.104
			c0.007,0.217,0.009,0.419,0.016,0.621c0.03,1.301-3.343,2.182-5.25,2.182c-0.74,0-1.259-0.135-1.267-0.439
			c-0.044-2.112-0.067-4.219-0.079-6.319c-1.701,1.009-3.363,2.39-4.127,3.854c-0.15,0.238-0.353,0.456-0.605,0.632
			c-0.309,1.328-3.483,1.956-5.252,1.956c-0.72,0-1.213-0.089-1.194-0.307c0.773-5.272,0.934-10.705,0.439-16.01
			c-0.232-2.628-0.406-6.166-1.544-8.9c-1.382,1.981-2.723,4.058-3.785,6.252c-2.649,5.348-4.051,11.002-4.144,16.96
			c-0.022,1.187-3.352,2.25-5.247,2.25c-0.672,0-1.226-0.156-1.269-0.519c-0.071-0.608-0.198-1.22-0.271-1.828
			c-2.151,1.336-4.498,2.211-7.144,2.211c-0.028,0-0.093,0-0.128-0.002c-2.812-0.019-4.26-2.082-4.905-4.649
			c-0.698-2.81-0.938-5.919-0.799-9.034c-0.404,0.219-0.76,0.432-1.175,0.605c-1.307,0.942-2.916,1.717-4.589,2.278
			c-0.751,2.806-1.957,5.517-3.942,7.401c-2.463,2.298-6.086,3.521-9.548,3.521c-1.142,0-2.234-0.129-3.268-0.391
			c-7.917-1.949-9.659-10.906-7.411-18.417c-1.256,1.297-2.589,2.438-4.077,3.392c-3.86,2.442-9.005,3.572-13.487,4.209
			c-0.918,0.135-1.866,0.23-2.821,0.312c0.136,3.016,0.384,5.995,0.716,8.956c0.103,1.235-3.303,2.226-5.23,2.226
			c-0.743,0-1.264-0.152-1.285-0.479c-0.333-3.49-0.612-7.016-0.781-10.551c-2.832-0.125-5.604-0.484-8.348-1.123
			c-0.428-0.098,1.851-6.217,3.444-6.217c0.035,0,0.063,0.006,0.103,0.019c1.534,0.353,3.078,0.621,4.624,0.819
			c-0.048-8.371,0.498-16.76,1.881-24.92c0.153-1.019,3.038-1.854,4.904-1.854c0.929,0,1.552,0.188,1.481,0.683
			c-1.436,8.64-1.935,17.582-1.735,26.468c5.856-0.047,11.716-1.191,17.067-3.444c2.441-1.048,4.352-2.449,6.108-4.472
			c0.477-0.545,0.948-1.114,1.338-1.713c0.341-0.42,0.509-0.732,0.701-1.043c0.197-0.336,0.399-0.674,0.631-1.181
			c0.257-0.61,0.478-1.233,0.616-1.864c2.303-8.088-3.81-13.88-11.006-16.301c-3.384-1.131-6.723-1.646-10.075-1.646
			c-14.83,0-28.827,10.194-37.845,21.641c-0.174,0.205-1.009,1.201-1.389,1.201c-0.117,0-0.211-0.148-0.099-0.581
			c0.286-1.515,1.263-3.161,2.219-4.368c7.593-9.64,17.725-18.704,29.609-22.422c3.526-1.104,7.404-1.762,11.316-1.762
			c6.062,0,12.188,1.567,16.787,5.427c5.743,4.771,5.538,11.79,2.704,18.174c-0.409,1.007-0.912,2.023-1.474,3.06
			c0.419-0.254,0.863-0.48,1.312-0.683c1.043-0.472,2.358-0.92,3.636-0.92c0.306,0,0.589,0.031,0.864,0.08
			c1.458,0.319-0.282,1.426-0.79,1.656c-1.854,0.793-3.591,3.799-4.411,6.012c-1.924,5.112-2.702,13.192,1.918,17.229
			c1.112,1.009,2.475,1.729,3.988,1.996c0.161,0.031,0.305,0.041,0.49,0.041c0.224,0,0.456-0.017,0.622-0.02
			c0.39-0.448,0.906-1.158,1.128-1.518c1.105-1.732,1.948-3.733,2.557-5.852c-1.389-0.118-2.692-0.438-3.896-1.048
			c-5.069-2.558-6.729-10.062-2.387-14.103c1.57-1.488,4.94-3.309,7.789-3.309c1.278,0,2.482,0.381,3.293,1.37
			c2.521,2.918,2.927,7.492,2.434,11.153c-0.067,0.682-0.166,1.42-0.315,2.186c0.027-0.033,0.052-0.043,0.077-0.059
			c0.583-0.26,2.094-1.271,3.003-2.205c1.531-1.633,2.524-3.583,3.081-5.76c0.293-1.055,3.175-1.824,4.997-1.824
			c0.88,0,1.535,0.208,1.452,0.648c-1.076,4.406-1.2,9.478-0.67,13.939c0.228,1.884,0.531,4.791,2.209,6.023
			c1.048-0.826,1.991-1.793,2.916-2.765c0.167-0.157,0.313-0.295,0.526-0.432c-0.717-6.8-0.766-13.533-0.103-20.435
			c0.018-0.157,0.068-0.311,0.147-0.479c0.136-0.084,0.216-0.192,0.338-0.304c1.009-0.853,3.308-1.304,4.753-1.304
			c0.75,0,1.252,0.118,1.229,0.355c-0.273,2.922-0.379,5.825-0.45,8.7c0.121-0.147,0.175-0.291,0.252-0.434
			c1.638-2.777,3.505-5.498,5.607-7.904c1.578-1.733,4.26-2.317,6.463-2.371c0.02-0.002,0.042-0.002,0.07-0.002
			c3.706,0,4.308,6.901,4.616,9.421c0.576,4.569,0.735,9.244,0.426,13.861c1.291-0.781,2.683-1.464,4.126-2.007
			c0.005-9.041,0.344-18.04,1.02-27.047c-1.103-0.026-2.16-0.035-3.221-0.035c-5.58,0-11.158,0.418-16.585,1.216
			c-0.065,0.003-0.078,0.005-0.099,0.005c-0.127,0-0.229-0.098-0.245-0.235c-1.484,0.506-2.957,1.063-4.419,1.658
			c-0.031,0.011-0.061,0.02-0.089,0.02c-0.527,0,0.508-2.366,0.556-2.465c0.49-0.977,1.386-2.905,2.466-3.363
			c7.257-2.925,14.779-4.834,22.403-6.096c0.216-2.295,0.455-4.562,0.701-6.858c0.108-1.372,3.432-2.078,5.244-2.078
			c0.73,0,1.232,0.114,1.223,0.348c-0.273,2.563-0.525,5.13-0.76,7.69c8.285-0.988,16.701-1.338,25.02-1.476
			c0.001,0,0.002,0,0.002,0c0.49,0-1.064,3.106-1.129,3.235c-0.409,0.693-1.28,2.564-2.243,2.573
			c-4.869,0.092-9.746,0.24-14.624,0.564c3.578,0.494,7.064,1.195,10.499,2.102c0.478,0.126-1.935,6.219-3.435,6.219
			c-0.043,0-0.115-0.005-0.154-0.018c-4.793-1.297-9.79-2.152-14.768-2.597c-0.666,9.553-0.972,19.1-0.879,28.729
			c1.211-0.734,2.465-1.373,3.805-1.921c-1.615-7.353,1.949-16.968,8.382-19.8c1.044-0.472,2.405-0.92,3.653-0.92
			c0.289,0,0.617,0.031,0.908,0.08c1.444,0.319-0.338,1.426-0.845,1.656c-1.72,0.754-3.435,3.564-4.245,5.67
			c-1.154,2.824-1.738,5.895-1.611,8.955c0.16,2.709,0.807,5.82,2.656,7.902c0.928,1.014,2.049,1.862,3.32,2.338
			c0.605,0.229,1.346,0.428,2.025,0.469c-0.01-0.004-0.004-0.004,0.015-0.004c0.024,0,0.161,0.004,0.254,0.008
			c1.913-1.79,3.181-4.57,3.927-7.441c-1.359-0.107-2.73-0.438-3.951-1.053c-5.064-2.557-6.681-10.062-2.388-14.102
			c1.617-1.49,4.995-3.31,7.789-3.31c1.343,0,2.509,0.381,3.354,1.37c2.466,2.918,2.92,7.492,2.435,11.152
			c-0.051,0.379-0.146,0.772-0.196,1.164c2.871-3.486,5.297-7.593,6.404-11.889c0.307-1.051,3.148-1.822,4.99-1.822
			c0.888,0,1.527,0.201,1.439,0.655c-0.74,3.205-0.902,6.659-0.873,9.933c0.021,3.903,0.213,8.506,2.321,11.972
			c0.565,0.976,1.536,2.13,2.728,2.521c0.199-0.188,0.334-0.406,0.506-0.644c0.506-0.83,0.953-1.713,1.244-2.64
			c1.188-3.617,1.414-7.475,1.49-11.272c-0.027-1.097-0.009-2.117,0.061-3.051c0.146-1.304,3.499-2.136,5.314-2.136
			c0.723,0,1.209,0.127,1.201,0.397c-0.021,1.151-0.023,2.388-0.04,3.658c0.163,2.716,0.777,5.432,1.722,7.95
			c0.93,2.475,2.514,6.219,5.181,7.578c0.388-0.638,0.669-1.328,0.894-2.043c0.615-2.211,0.918-4.519,0.993-6.807
			c0.066-2.683-0.011-5.379-0.286-8.044c-0.158-1.407-0.353-2.79-0.576-4.188c-0.057-0.403-0.281-1.063-0.228-1.51
			c0.146-1.088,3.327-2.306,5.202-2.306c0.658,0,1.197,0.155,1.306,0.574c0.347,1.225,0.509,2.542,0.755,3.793
			c0.233,1.263,0.273,2.071,1.529,2.743c0.773,0.416,1.523,0.815,2.311,1.132c0.346,0.139,0.772,0.29,1.213,0.394
			c0.16-0.097,0.322-0.189,0.506-0.255c0.054-2.171,0.207-4.346,0.418-6.538c0.109-1.363,3.417-2.087,5.244-2.087
			c0.748,0,1.252,0.118,1.229,0.355c-0.271,2.922-0.417,5.826-0.446,8.701c0.117-0.147,0.172-0.291,0.254-0.434
			c1.631-2.777,3.498-5.498,5.605-7.904c1.573-1.733,4.255-2.317,6.461-2.371c0.016-0.002,0.041-0.002,0.066-0.002
			c3.709,0,4.307,6.901,4.617,9.421c0.569,4.519,0.734,9.103,0.431,13.678c1.28-0.758,2.642-1.413,4.044-1.938
			c0.708-0.257,1.938-0.681,2.994-0.681c0.439,0,0.863,0.084,1.184,0.3C250.712,68.18,248.043,69.264,247.782,69.364z
			 M49.017,55.007c0.114-7.115,0.671-13.912,1.708-20.242c0.086-0.304,0.114-0.631,0.112-0.959c2.407,0.126,4.754,0.584,7.074,1.359
			c2.255,0.778,9.545,3.766,7.752,10.167c-0.122,0.391-0.274,0.793-0.428,1.247c-0.133,0.228-0.194,0.354-0.351,0.605
			c-0.076,0.152-0.152,0.302-0.409,0.642c-0.321,0.421-0.651,0.84-1.104,1.344c-1.265,1.475-2.527,2.414-4.244,3.141
			C55.998,53.637,52.576,54.533,49.017,55.007z"/>
		<path style="fill:#0A696E;" d="M162.04,52.438c-0.613,1.192-1.192,2.537-1.071,3.91c0.102,1.92,0.555,4.092,1.918,5.578
			c0.329,0.381,0.74,0.742,1.115,1.055c0.096-0.543,0.122-1.092,0.135-1.606c0.043-2.272-0.039-6.942-1.986-9.048
			C162.131,52.359,162.062,52.41,162.04,52.438z"/>
	</g>
</g>
<g>
	<path style="fill:#0A696E;" d="M253.496,39.57c0,2.608-2.048,4.656-4.712,4.656c-2.638,0-4.74-2.047-4.74-4.656
		c0-2.553,2.104-4.6,4.74-4.6C251.448,34.97,253.496,37.017,253.496,39.57z M245.223,39.57c0,2.047,1.514,3.674,3.59,3.674
		c2.021,0,3.506-1.627,3.506-3.646c0-2.047-1.485-3.702-3.533-3.702C246.736,35.896,245.223,37.55,245.223,39.57z M248.055,41.982
		h-1.064v-4.6c0.421-0.084,1.01-0.14,1.767-0.14c0.869,0,1.263,0.14,1.599,0.336c0.254,0.196,0.449,0.561,0.449,1.01
		c0,0.505-0.393,0.897-0.953,1.066v0.056c0.448,0.168,0.7,0.505,0.842,1.122c0.141,0.702,0.225,0.982,0.336,1.15h-1.149
		c-0.142-0.168-0.226-0.589-0.364-1.122c-0.084-0.505-0.365-0.729-0.953-0.729h-0.506v1.851H248.055z M248.083,39.373h0.505
		c0.589,0,1.064-0.196,1.064-0.673c0-0.421-0.309-0.701-0.98-0.701c-0.279,0-0.477,0.028-0.589,0.056V39.373z"/>
</g>
</svg>
