<?xml version="1.0" encoding="iso-8859-1"?>
<!-- Generator: Adobe Illustrator 16.0.3, SVG Export Plug-In . SVG Version: 6.00 Build 0)  -->
<!DOCTYPE svg PUBLIC "-//W3C//DTD SVG 1.1//EN" "http://www.w3.org/Graphics/SVG/1.1/DTD/svg11.dtd">
<svg version="1.1" id="Layer_1" xmlns="http://www.w3.org/2000/svg" xmlns:xlink="http://www.w3.org/1999/xlink" x="0px" y="0px"
	 width="100px" height="100px" viewBox="0 0 100 100" style="enable-background:new 0 0 100 100;" xml:space="preserve">
<g>
	<g>
		<defs>
			<circle id="SVGID_1_" cx="50.162" cy="49.5" r="50"/>
		</defs>
		<clipPath id="SVGID_2_">
			<use xlink:href="#SVGID_1_"  style="overflow:visible;"/>
		</clipPath>
		<circle style="clip-path:url(#SVGID_2_);fill:#8AB8FF;" cx="50.162" cy="49.5" r="54.5"/>
	</g>
	<g>
		<defs>
			<circle id="SVGID_3_" cx="50.162" cy="49.5" r="50"/>
		</defs>
		<clipPath id="SVGID_4_">
			<use xlink:href="#SVGID_3_"  style="overflow:visible;"/>
		</clipPath>
		<rect x="-6" y="75" style="clip-path:url(#SVGID_4_);fill:#004B55;" width="112" height="32"/>
	</g>
	<g>
		<defs>
			<circle id="SVGID_5_" cx="50.162" cy="49.5" r="50"/>
		</defs>
		<clipPath id="SVGID_6_">
			<use xlink:href="#SVGID_5_"  style="overflow:visible;"/>
		</clipPath>
		<rect x="15" y="25" style="clip-path:url(#SVGID_6_);fill:#7B818C;" width="70" height="61"/>
	</g>
	<g>
		<defs>
			<circle id="SVGID_7_" cx="50.162" cy="49.5" r="50"/>
		</defs>
		<clipPath id="SVGID_8_">
			<use xlink:href="#SVGID_7_"  style="overflow:visible;"/>
		</clipPath>
		<rect x="48" y="41" style="clip-path:url(#SVGID_8_);fill:#FFFFCC;" width="33" height="40"/>
	</g>
	<g>
		<defs>
			<circle id="SVGID_9_" cx="50.162" cy="49.5" r="50"/>
		</defs>
		<clipPath id="SVGID_10_">
			<use xlink:href="#SVGID_9_"  style="overflow:visible;"/>
		</clipPath>
		<rect x="48" y="27" style="clip-path:url(#SVGID_10_);fill:#D6ECF0;" width="33" height="11"/>
	</g>
	<g>
		<defs>
			<circle id="SVGID_11_" cx="50.162" cy="49.5" r="50"/>
		</defs>
		<clipPath id="SVGID_12_">
			<use xlink:href="#SVGID_11_"  style="overflow:visible;"/>
		</clipPath>
		<rect x="48" y="66" style="clip-path:url(#SVGID_12_);fill:#3E5554;" width="33" height="23"/>
	</g>
	<g>
		<defs>
			<circle id="SVGID_13_" cx="50.162" cy="49.5" r="50"/>
		</defs>
		<clipPath id="SVGID_14_">
			<use xlink:href="#SVGID_13_"  style="overflow:visible;"/>
		</clipPath>
		<rect x="20" y="32" style="clip-path:url(#SVGID_14_);fill:#D6ECF0;" width="24" height="49"/>
	</g>
	<g>
		<defs>
			<circle id="SVGID_15_" cx="50.162" cy="49.5" r="50"/>
		</defs>
		<clipPath id="SVGID_16_">
			<use xlink:href="#SVGID_15_"  style="overflow:visible;"/>
		</clipPath>
		<rect x="48" y="67" style="clip-path:url(#SVGID_16_);fill:#A67C52;" width="33" height="14"/>
	</g>
	<g>
		<defs>
			<circle id="SVGID_17_" cx="50.162" cy="49.5" r="50"/>
		</defs>
		<clipPath id="SVGID_18_">
			<use xlink:href="#SVGID_17_"  style="overflow:visible;"/>
		</clipPath>
		<rect x="48" y="64" style="clip-path:url(#SVGID_18_);fill:#7D5D3E;" width="33" height="3"/>
	</g>
	<g>
		<defs>
			<circle id="SVGID_19_" cx="50.162" cy="49.5" r="50"/>
		</defs>
		<clipPath id="SVGID_20_">
			<use xlink:href="#SVGID_19_"  style="overflow:visible;"/>
		</clipPath>
		<g style="clip-path:url(#SVGID_20_);">
			<g>
				<path style="fill:#00A99D;" d="M22,31.801c0,2.025-2.432,3.668-5,3.668l0,0c-2.566,0-5-1.643-5-3.668V30h10V31.801z"/>
				<path style="fill:#FBB03B;" d="M31,31.801c0,2.025-1.934,3.668-4.5,3.668l0,0c-2.568,0-4.5-1.643-4.5-3.668V30h9V31.801z"/>
				<path style="fill:#00A99D;" d="M41,31.801c0,2.025-2.432,3.668-5,3.668l0,0c-2.566,0-5-1.643-5-3.668V30h10V31.801z"/>
				<path style="fill:#FBB03B;" d="M50,31.801c0,2.025-1.934,3.668-4.5,3.668l0,0c-2.568,0-4.5-1.643-4.5-3.668V30h9V31.801z"/>
				<path style="fill:#00A99D;" d="M59,31.801c0,2.025-1.932,3.668-4.5,3.668l0,0c-2.566,0-4.5-1.643-4.5-3.668V30h9V31.801z"/>
				<path style="fill:#FBB03B;" d="M68,30.301c0,2.025-1.936,3.668-4.5,3.668l0,0c-2.568,0-4.5-1.643-4.5-3.668V28h9V30.301z"/>
				<path style="fill:#00A99D;" d="M78,31.801c0,2.025-2.432,3.668-5,3.668l0,0c-2.566,0-5-1.643-5-3.668V30h10V31.801z"/>
				<path style="fill:#FBB03B;" d="M87,31.801c0,2.025-1.934,3.668-4.5,3.668l0,0c-2.568,0-4.5-1.643-4.5-3.668V30h9V31.801z"/>
			</g>
			<g>
				<polygon style="fill:#00A99D;" points="25.549,20 16.918,20 12.5,30 22.282,30 				"/>
				<polygon style="fill:#FBB03B;" points="33.459,20 25.549,20 22.282,30 31.25,30 				"/>
				<polygon style="fill:#00A99D;" points="42.089,20 33.459,20 31.25,30 41.032,30 				"/>
				<polygon style="fill:#FBB03B;" points="50,20 42.089,20 41.032,30 50,30 				"/>
				<polygon style="fill:#00A99D;" points="57.911,20 50,20 50,30 58.968,30 				"/>
				<polygon style="fill:#FBB03B;" points="66.541,20 57.911,20 58.968,30 68.75,30 				"/>
				<polygon style="fill:#00A99D;" points="74.451,20 66.541,20 68.75,30 77.718,30 				"/>
				<polygon style="fill:#FBB03B;" points="83.082,20 74.451,20 77.718,30 87.5,30 				"/>
			</g>
			<line style="fill:none;stroke:#E2E8FE;stroke-miterlimit:10;" x1="16" y1="29.5" x2="84" y2="29.5"/>
		</g>
	</g>
	<g>
		<defs>
			<circle id="SVGID_21_" cx="50.162" cy="49.5" r="50"/>
		</defs>
		<clipPath id="SVGID_22_">
			<use xlink:href="#SVGID_21_"  style="overflow:visible;"/>
		</clipPath>
		<circle style="clip-path:url(#SVGID_22_);fill:#00A99D;" cx="31.639" cy="52.754" r="8.057"/>
	</g>
	<g>
		<defs>
			<circle id="SVGID_23_" cx="50.162" cy="49.5" r="50"/>
		</defs>
		<clipPath id="SVGID_24_">
			<use xlink:href="#SVGID_23_"  style="overflow:visible;"/>
		</clipPath>
		<polygon style="clip-path:url(#SVGID_24_);fill:#FBB03B;" points="41,54.052 22,56.948 22,51.948 41,49.052 		"/>
	</g>
</g>
</svg>
