<?xml version="1.0" encoding="iso-8859-1"?>
<!-- Generator: Adobe Illustrator 16.0.3, SVG Export Plug-In . SVG Version: 6.00 Build 0)  -->
<!DOCTYPE svg PUBLIC "-//W3C//DTD SVG 1.1//EN" "http://www.w3.org/Graphics/SVG/1.1/DTD/svg11.dtd">
<svg version="1.1" id="Layer_1" xmlns="http://www.w3.org/2000/svg" xmlns:xlink="http://www.w3.org/1999/xlink" x="0px" y="0px"
	 width="100px" height="100px" viewBox="0 0 100 100" style="enable-background:new 0 0 100 100;" xml:space="preserve">
<g>
	<g>
		<defs>
			<circle id="SVGID_1_" cx="49.162" cy="50.127" r="50"/>
		</defs>
		<clipPath id="SVGID_2_">
			<use xlink:href="#SVGID_1_"  style="overflow:visible;"/>
		</clipPath>
		<circle style="clip-path:url(#SVGID_2_);fill:#004B55;" cx="49.162" cy="50.127" r="55.014"/>
	</g>
	<g>
		<defs>
			<circle id="SVGID_3_" cx="49.162" cy="50.127" r="50"/>
		</defs>
		<clipPath id="SVGID_4_">
			<use xlink:href="#SVGID_3_"  style="overflow:visible;"/>
		</clipPath>
		<polygon style="clip-path:url(#SVGID_4_);fill:#22B573;" points="-15.307,59.27 75,21.333 116,38.333 -8,110 		"/>
	</g>
	<g>
		<defs>
			<circle id="SVGID_5_" cx="49.162" cy="50.127" r="50"/>
		</defs>
		<clipPath id="SVGID_6_">
			<use xlink:href="#SVGID_5_"  style="overflow:visible;"/>
		</clipPath>
		<polygon style="clip-path:url(#SVGID_6_);fill:#8CC63F;" points="-47.702,58.72 55.458,20.904 93.521,39.682 -7.667,95.667 		"/>
	</g>
	<g>
		<defs>
			<circle id="SVGID_7_" cx="49.162" cy="50.127" r="50"/>
		</defs>
		<clipPath id="SVGID_8_">
			<use xlink:href="#SVGID_7_"  style="overflow:visible;"/>
		</clipPath>
		<path style="clip-path:url(#SVGID_8_);fill:#999999;" d="M48.853,55.083c0.435-4.628-10.579-8.503-24.078-8.503
			c-13.498,0-24.296,3.875-23.864,8.503c0.129,1.37,0.488,6.104,0.61,7.409c0.395,4.214,11.015,7.527,23.319,7.527
			c12.303,0,22.923-3.312,23.317-7.527C48.279,61.186,48.725,56.453,48.853,55.083z"/>
	</g>
	<g>
		<defs>
			<circle id="SVGID_9_" cx="49.162" cy="50.127" r="50"/>
		</defs>
		<clipPath id="SVGID_10_">
			<use xlink:href="#SVGID_9_"  style="overflow:visible;"/>
		</clipPath>
		<path style="clip-path:url(#SVGID_10_);fill:#FFC52E;" d="M55.322,45.405c0.451-4.804-10.98-8.826-24.99-8.826
			c-14.01,0-25.217,4.022-24.769,8.826c0.133,1.421,0.506,6.334,0.633,7.688c0.41,4.374,11.433,7.812,24.204,7.812
			c12.768,0,23.792-3.438,24.2-7.812C54.729,51.739,55.189,46.826,55.322,45.405z"/>
	</g>
	<g>
		<defs>
			<circle id="SVGID_11_" cx="49.162" cy="50.127" r="50"/>
		</defs>
		<clipPath id="SVGID_12_">
			<use xlink:href="#SVGID_11_"  style="overflow:visible;"/>
		</clipPath>
		<ellipse style="clip-path:url(#SVGID_12_);fill:#FFDF2E;" cx="31.079" cy="44.717" rx="21.879" ry="6.251"/>
	</g>
	<g>
		<defs>
			<circle id="SVGID_13_" cx="49.162" cy="50.127" r="50"/>
		</defs>
		<clipPath id="SVGID_14_">
			<use xlink:href="#SVGID_13_"  style="overflow:visible;"/>
		</clipPath>
		<path style="clip-path:url(#SVGID_14_);fill:#BF9423;" d="M49.446,35.198c0.463-4.939-11.291-9.076-25.698-9.076
			c-14.407,0-25.933,4.136-25.471,9.076c0.138,1.462,0.521,6.515,0.651,7.909c0.421,4.497,11.756,8.034,24.889,8.034
			c13.13,0,24.466-3.537,24.888-8.034C48.835,41.712,49.31,36.66,49.446,35.198z"/>
	</g>
	<g>
		<defs>
			<circle id="SVGID_15_" cx="49.162" cy="50.127" r="50"/>
		</defs>
		<clipPath id="SVGID_16_">
			<use xlink:href="#SVGID_15_"  style="overflow:visible;"/>
		</clipPath>
		<g style="clip-path:url(#SVGID_16_);">
			<path style="fill:#CCCCCC;" d="M93.032,55.146c0.321-3.426-7.828-6.293-17.817-6.293c-9.99,0-17.98,2.87-17.66,6.293
				c0.094,1.014,0.359,4.517,0.45,5.482c0.293,3.118,8.151,5.57,17.259,5.57c9.104,0,16.963-2.452,17.254-5.57
				C92.609,59.663,92.938,56.16,93.032,55.146z"/>
			<path style="fill:#E6E6E6;" d="M90.632,54.367c-0.231,2.574-7.063,4.599-15.262,4.599c-8.199,0-15.035-2.024-15.279-4.599
				c-0.252-2.658,6.577-4.87,15.261-4.87C84.036,49.497,90.873,51.709,90.632,54.367z"/>
		</g>
	</g>
</g>
<g>
	<path style="fill:#FFC52E;" d="M54.994,22.552c0.477-5.056-11.557-9.291-26.306-9.291c-14.747,0-26.544,4.234-26.072,9.291
		c0.14,1.497,0.532,6.668,0.666,8.095c0.432,4.604,12.033,8.224,25.479,8.224c13.439,0,25.043-3.62,25.475-8.224
		C54.369,29.221,54.854,24.049,54.994,22.552z"/>
	<path style="fill:#FFDF2E;" d="M51.451,21.402c-0.344,3.8-10.428,6.789-22.533,6.789c-12.104,0-22.196-2.989-22.557-6.789
		c-0.371-3.924,9.711-7.19,22.529-7.19C41.712,14.212,51.809,17.478,51.451,21.402z"/>
</g>
<g>
	<path style="fill:#FFC52E;" d="M91.544,77.325c0.541-5.769-13.185-10.601-30.013-10.601c-16.823,0-30.283,4.832-29.745,10.601
		c0.16,1.708,0.608,7.608,0.76,9.235c0.493,5.252,13.73,9.381,29.067,9.381c15.335,0,28.57-4.129,29.063-9.381
		C90.83,84.934,91.384,79.033,91.544,77.325z"/>
	<path style="fill:#FFDF2E;" d="M87.501,76.012c-0.394,4.338-11.896,7.747-25.707,7.747c-13.808,0-25.324-3.409-25.735-7.747
		c-0.423-4.476,11.079-8.203,25.705-8.203C76.391,67.809,87.907,71.536,87.501,76.012z"/>
</g>
</svg>
