<?xml version="1.0" encoding="iso-8859-1"?>
<!-- Generator: Adobe Illustrator 16.0.3, SVG Export Plug-In . SVG Version: 6.00 Build 0)  -->
<!DOCTYPE svg PUBLIC "-//W3C//DTD SVG 1.1//EN" "http://www.w3.org/Graphics/SVG/1.1/DTD/svg11.dtd">
<svg version="1.1" id="Layer_1" xmlns="http://www.w3.org/2000/svg" xmlns:xlink="http://www.w3.org/1999/xlink" x="0px" y="0px"
	 width="100px" height="100px" viewBox="0 0 100 100" style="enable-background:new 0 0 100 100;" xml:space="preserve">
<g>
	<circle style="fill:#8AB8FF;" cx="49.162" cy="50.127" r="50"/>
	<g>
		<g>
			<defs>
				<circle id="SVGID_1_" cx="49.162" cy="50.127" r="50"/>
			</defs>
			<clipPath id="SVGID_2_">
				<use xlink:href="#SVGID_1_"  style="overflow:visible;"/>
			</clipPath>
			<path style="clip-path:url(#SVGID_2_);fill:#85C5D1;" d="M74.488,72H21.85c-1.705,0-3.086,34.141-3.086,34.141l58.811,0.035
				C77.574,106.175,76.193,72,74.488,72z"/>
		</g>
		<g>
			<defs>
				<circle id="SVGID_3_" cx="49.162" cy="50.127" r="50"/>
			</defs>
			<clipPath id="SVGID_4_">
				<use xlink:href="#SVGID_3_"  style="overflow:visible;"/>
			</clipPath>
			<path style="clip-path:url(#SVGID_4_);fill:#D6ECF0;" d="M69.629,106H25.74c-1.423,0-6.958-36.163-6.958-36.163
				c-0.174-1.438,6.065-5.521,29.387-5.521c23.323,0,28.674,3.867,28.479,5.438C76.648,69.754,71.053,106,69.629,106z"/>
		</g>
		<g>
			<defs>
				<circle id="SVGID_5_" cx="49.162" cy="50.127" r="50"/>
			</defs>
			<clipPath id="SVGID_6_">
				<use xlink:href="#SVGID_5_"  style="overflow:visible;"/>
			</clipPath>
			<g style="clip-path:url(#SVGID_6_);">
				<path style="fill:#D6ECF0;" d="M87.988,105.229c0.035,0.582-0.652,0.771-1.244,0.771H74.461c-0.592,0-0.548-0.076-0.568-0.658
					l-1.367-36.546c0,0,8.557,1.351,10.263,3.97C85.167,76.41,87.988,105.229,87.988,105.229z"/>
				<path style="fill:#D6ECF0;" d="M8.361,105.229C8.327,105.811,9.004,106,9.585,106h12.361c0,0,0.01-0.076,0.031-0.658
					l1.393-36.546c0,0-8.303,1.351-9.982,3.97C11.041,76.41,8.361,105.229,8.361,105.229z"/>
			</g>
		</g>
		<g>
			<defs>
				<circle id="SVGID_7_" cx="49.162" cy="50.127" r="50"/>
			</defs>
			<clipPath id="SVGID_8_">
				<use xlink:href="#SVGID_7_"  style="overflow:visible;"/>
			</clipPath>
			<path style="clip-path:url(#SVGID_8_);fill:#E5C4A3;" d="M59,73.414C59,74.795,58.2,76,56.803,76H39.388
				C37.989,76,37,74.795,37,73.414V52.771C37,51.393,37.989,51,39.388,51h17.415C58.2,51,59,51.393,59,52.771V73.414z"/>
		</g>
		<g>
			<defs>
				<circle id="SVGID_9_" cx="49.162" cy="50.127" r="50"/>
			</defs>
			<clipPath id="SVGID_10_">
				<use xlink:href="#SVGID_9_"  style="overflow:visible;"/>
			</clipPath>
			<path style="clip-path:url(#SVGID_10_);fill:#E5C4A3;" d="M46.409,89.473l-2.688-11.625C43.184,73.375,43.813,71,44.402,71h7.312
				c0.589,0,1.173,2.375,0.634,6.848C52.348,77.848,46.639,91.326,46.409,89.473z"/>
		</g>
		<g>
			<defs>
				<circle id="SVGID_11_" cx="49.162" cy="50.127" r="50"/>
			</defs>
			<clipPath id="SVGID_12_">
				<use xlink:href="#SVGID_11_"  style="overflow:visible;"/>
			</clipPath>
			<path style="clip-path:url(#SVGID_12_);fill:#AD9279;" d="M67.518,37.578c-1.05,14.827-9.425,25.693-18.812,25.693
				c-9.383,0-17.758-10.867-18.809-25.693c-1.179-16.691,7.436-25.319,18.809-25.319C60.081,12.259,68.697,20.886,67.518,37.578z"/>
		</g>
		<g>
			<defs>
				<circle id="SVGID_13_" cx="49.162" cy="50.127" r="50"/>
			</defs>
			<clipPath id="SVGID_14_">
				<use xlink:href="#SVGID_13_"  style="overflow:visible;"/>
			</clipPath>
			<ellipse style="clip-path:url(#SVGID_14_);fill:#E5C4A3;" cx="62.077" cy="36.444" rx="8.706" ry="10.402"/>
		</g>
		<g>
			<defs>
				<circle id="SVGID_15_" cx="49.162" cy="50.127" r="50"/>
			</defs>
			<clipPath id="SVGID_16_">
				<use xlink:href="#SVGID_15_"  style="overflow:visible;"/>
			</clipPath>
			<path style="clip-path:url(#SVGID_16_);fill:#E5C4A3;" d="M43.767,36.444c0,5.743-3.896,10.402-8.708,10.402
				c-4.807,0-8.709-4.66-8.709-10.402c0-5.742,3.902-10.403,8.709-10.403C39.87,26.041,43.767,30.701,43.767,36.444z"/>
		</g>
		<g>
			<defs>
				<circle id="SVGID_17_" cx="49.162" cy="50.127" r="50"/>
			</defs>
			<clipPath id="SVGID_18_">
				<use xlink:href="#SVGID_17_"  style="overflow:visible;"/>
			</clipPath>
			<path style="clip-path:url(#SVGID_18_);fill:#E5C4A3;" d="M33.688,42.163c0,1.924-1.31,3.487-2.918,3.487
				c-1.612,0-2.917-1.562-2.917-3.487c0-1.928,1.305-3.489,2.917-3.489C32.378,38.674,33.688,40.235,33.688,42.163z"/>
		</g>
		<g>
			<defs>
				<circle id="SVGID_19_" cx="49.162" cy="50.127" r="50"/>
			</defs>
			<clipPath id="SVGID_20_">
				<use xlink:href="#SVGID_19_"  style="overflow:visible;"/>
			</clipPath>
			<ellipse style="clip-path:url(#SVGID_20_);fill:#E5C4A3;" cx="66.793" cy="42.163" rx="2.917" ry="3.487"/>
		</g>
		<g>
			<defs>
				<circle id="SVGID_21_" cx="49.162" cy="50.127" r="50"/>
			</defs>
			<clipPath id="SVGID_22_">
				<use xlink:href="#SVGID_21_"  style="overflow:visible;"/>
			</clipPath>
			<path style="clip-path:url(#SVGID_22_);fill:#E5C4A3;" d="M68.6,36.792c-1.106,14.367-9.965,24.897-19.894,24.897
				c-9.923,0-18.779-10.53-19.89-24.897c-1.244-16.173,7.865-24.534,19.89-24.534C60.734,12.259,69.846,20.619,68.6,36.792z"/>
		</g>
		<g>
			<defs>
				<circle id="SVGID_23_" cx="49.162" cy="50.127" r="50"/>
			</defs>
			<clipPath id="SVGID_24_">
				<use xlink:href="#SVGID_23_"  style="overflow:visible;"/>
			</clipPath>
			<path style="clip-path:url(#SVGID_24_);fill:#85C5D1;" d="M44.286,75.087c-4.084-2.655-7.778-13.655-7.778-13.655l-3.319,5.262
				l-0.235,14.463C32.953,81.157,41.727,78.079,44.286,75.087z"/>
		</g>
		<g>
			<defs>
				<circle id="SVGID_25_" cx="49.162" cy="50.127" r="50"/>
			</defs>
			<clipPath id="SVGID_26_">
				<use xlink:href="#SVGID_25_"  style="overflow:visible;"/>
			</clipPath>
			<path style="clip-path:url(#SVGID_26_);fill:#D6ECF0;" d="M44.286,74.839c-4.084-2.94-7.778-15.123-7.778-15.123l-3.319,5.829
				l-1.562,11.742C31.627,77.288,41.727,78.152,44.286,74.839z"/>
		</g>
		<g>
			<defs>
				<circle id="SVGID_27_" cx="49.162" cy="50.127" r="50"/>
			</defs>
			<clipPath id="SVGID_28_">
				<use xlink:href="#SVGID_27_"  style="overflow:visible;"/>
			</clipPath>
			<path style="clip-path:url(#SVGID_28_);fill:#85C5D1;" d="M52.221,75.172c3.937-2.924,7.032-14.15,7.032-14.15l3.601,5.033
				l1.746,14.37C64.6,80.425,54.943,77.986,52.221,75.172z"/>
		</g>
		<g>
			<defs>
				<circle id="SVGID_29_" cx="49.162" cy="50.127" r="50"/>
			</defs>
			<clipPath id="SVGID_30_">
				<use xlink:href="#SVGID_29_"  style="overflow:visible;"/>
			</clipPath>
			<path style="clip-path:url(#SVGID_30_);fill:#85C5D1;" d="M46.299,89.473c3.404-4.451,6.51-13.812,6.51-13.812l2.828,1.353
				l-10.384,29.065C45.253,106.079,47.686,96.656,46.299,89.473z"/>
		</g>
		<g>
			<defs>
				<circle id="SVGID_31_" cx="49.162" cy="50.127" r="50"/>
			</defs>
			<clipPath id="SVGID_32_">
				<use xlink:href="#SVGID_31_"  style="overflow:visible;"/>
			</clipPath>
			<path style="clip-path:url(#SVGID_32_);fill:#D6ECF0;" d="M52.221,74.934c3.937-3.238,7.032-15.67,7.032-15.67l3.601,5.573
				l2.127,11.604C64.979,76.441,54.943,78.051,52.221,74.934z"/>
		</g>
	</g>
	<path d="M62.589,17.727c0,0-8.362-0.57-16.157,1.14c-10.674,2.343-13.877,9.125-17.298,7.793c-3.421-1.331-1.9-8.554-0.57-10.264
		c1.33-1.711,7.794-4.942,9.313-5.893c1.715-1.071,11.201-2.621,19.01,0.19C66.391,14.115,62.589,17.727,62.589,17.727z"/>
	<path d="M61.829,15.826c0,0,11.257,0.836,4.963,22.848c0.931-8.592-1.731-9.922-4.015-13.724
		C60.496,21.148,59.927,15.637,61.829,15.826z"/>
	<path d="M30.845,20.768c0,0-3.795,9.098-0.947,16.81c-0.954-11.677,4.369-17.38,4.369-17.38L30.845,20.768z"/>
</g>
</svg>
