<?xml version="1.0" encoding="iso-8859-1"?>
<!-- Generator: Adobe Illustrator 16.0.3, SVG Export Plug-In . SVG Version: 6.00 Build 0)  -->
<!DOCTYPE svg PUBLIC "-//W3C//DTD SVG 1.1//EN" "http://www.w3.org/Graphics/SVG/1.1/DTD/svg11.dtd">
<svg version="1.1" id="Layer_1" xmlns="http://www.w3.org/2000/svg" xmlns:xlink="http://www.w3.org/1999/xlink" x="0px" y="0px"
	 width="100px" height="100px" viewBox="0 0 100 100" style="enable-background:new 0 0 100 100;" xml:space="preserve">
<g>
	<g>
		<defs>
			<circle id="SVGID_1_" cx="50.334" cy="49.667" r="50"/>
		</defs>
		<clipPath id="SVGID_2_">
			<use xlink:href="#SVGID_1_"  style="overflow:visible;"/>
		</clipPath>
		<circle style="clip-path:url(#SVGID_2_);fill:#8AB8FF;" cx="50.334" cy="49.667" r="53.038"/>
	</g>
	<g>
		<defs>
			<circle id="SVGID_3_" cx="50.334" cy="49.667" r="50"/>
		</defs>
		<clipPath id="SVGID_4_">
			<use xlink:href="#SVGID_3_"  style="overflow:visible;"/>
		</clipPath>
		<path style="clip-path:url(#SVGID_4_);fill:#73A6A2;" d="M98.923,67.473l-46.437,6.821c-1.504,0.222,1.684,30.394,1.684,30.394
			l51.895-7.529C106.064,97.159,100.43,67.251,98.923,67.473z"/>
	</g>
	<g>
		<defs>
			<circle id="SVGID_5_" cx="50.334" cy="49.667" r="50"/>
		</defs>
		<clipPath id="SVGID_6_">
			<use xlink:href="#SVGID_5_"  style="overflow:visible;"/>
		</clipPath>
		<path style="clip-path:url(#SVGID_6_);fill:#E6E6E6;" d="M99.014,97.904l-38.717,5.688c-1.254,0.186-10.829-31.027-10.829-31.027
			c-0.34-1.246,4.634-5.668,25.208-8.69s25.799-0.285,25.831,1.125C100.507,64.998,100.27,97.719,99.014,97.904z"/>
	</g>
	<g>
		<defs>
			<circle id="SVGID_7_" cx="50.334" cy="49.667" r="50"/>
		</defs>
		<clipPath id="SVGID_8_">
			<use xlink:href="#SVGID_7_"  style="overflow:visible;"/>
		</clipPath>
		<g style="clip-path:url(#SVGID_8_);">
			<path style="fill:#E6E6E6;" d="M115.125,94.939c0.105,0.51-0.453,0.916-0.977,0.994l-10.836,1.592
				c-0.521,0.076-0.517-0.147-0.609-0.658l-5.952-32.139c0,0,7.728,0.121,9.573,2.209C108.895,69.845,115.125,94.939,115.125,94.939
				z"/>
			<path style="fill:#E6E6E6;" d="M44.881,105.259c0.044,0.521,0.688,0.75,1.202,0.675l10.901-1.603c0,0-0.021-0.22-0.078-0.735
				l-3.52-32.498c0,0-7.145,2.307-8.286,4.834C43.504,79.451,44.881,105.259,44.881,105.259z"/>
		</g>
	</g>
	<g>
		<defs>
			<circle id="SVGID_9_" cx="50.334" cy="49.667" r="50"/>
		</defs>
		<clipPath id="SVGID_10_">
			<use xlink:href="#SVGID_9_"  style="overflow:visible;"/>
		</clipPath>
		<path style="clip-path:url(#SVGID_10_);fill:#E5C4A3;" d="M84.919,65.718c0.179,1.218-2.853,5.339-9.354,6.293
			c-6.506,0.956-10.348-2.153-10.526-3.372l-2.675-18.211c-0.18-1.216,0.894-1.836,2.128-2.017l15.362-2.257
			c1.231-0.181,2.211,0.137,2.391,1.353L84.919,65.718z"/>
	</g>
	<g>
		<defs>
			<circle id="SVGID_11_" cx="50.334" cy="49.667" r="50"/>
		</defs>
		<clipPath id="SVGID_12_">
			<use xlink:href="#SVGID_11_"  style="overflow:visible;"/>
		</clipPath>
		<path style="clip-path:url(#SVGID_12_);fill:#AD9279;" d="M88.742,40.936c0.996,13.216-7.809,24.303-13.266,25.104
			s-17.074-7.285-19.922-20.229c-3.203-14.571,3.277-23.299,13.311-24.772C78.898,19.564,87.619,26.058,88.742,40.936z"/>
	</g>
	<g>
		<defs>
			<circle id="SVGID_13_" cx="50.334" cy="49.667" r="50"/>
		</defs>
		<clipPath id="SVGID_14_">
			<use xlink:href="#SVGID_13_"  style="overflow:visible;"/>
		</clipPath>
		<path style="clip-path:url(#SVGID_14_);fill:#E5C4A3;" d="M91.396,38.985c0.744,5.066-2.086,9.681-6.33,10.305
			c-4.241,0.623-8.284-2.982-9.028-8.048c-0.744-5.065,2.091-9.683,6.332-10.306C86.613,30.312,90.652,33.919,91.396,38.985z"/>
	</g>
	<g>
		<defs>
			<circle id="SVGID_15_" cx="51.314" cy="50.993" r="50.001"/>
		</defs>
		<clipPath id="SVGID_16_">
			<use xlink:href="#SVGID_15_"  style="overflow:visible;"/>
		</clipPath>
		
			<ellipse transform="matrix(-0.1453 -0.9894 0.9894 -0.1453 25.4293 109.2024)" style="clip-path:url(#SVGID_16_);fill:#E5C4A3;" cx="59.883" cy="43.617" rx="9.275" ry="7.765"/>
	</g>
	<g>
		<defs>
			<circle id="SVGID_17_" cx="50.468" cy="50.611" r="50.001"/>
		</defs>
		<clipPath id="SVGID_18_">
			<use xlink:href="#SVGID_17_"  style="overflow:visible;"/>
		</clipPath>
		
			<ellipse transform="matrix(-0.1453 -0.9894 0.9894 -0.1453 16.4024 112.6077)" style="clip-path:url(#SVGID_18_);fill:#E5C4A3;" cx="56.841" cy="49.219" rx="3.109" ry="2.6"/>
	</g>
	<g>
		<defs>
			<circle id="SVGID_19_" cx="50.334" cy="49.667" r="50"/>
		</defs>
		<clipPath id="SVGID_20_">
			<use xlink:href="#SVGID_19_"  style="overflow:visible;"/>
		</clipPath>
		<path style="clip-path:url(#SVGID_20_);fill:#E5C4A3;" d="M91.191,44.17c0.25,1.697-0.698,3.245-2.121,3.454
			c-1.424,0.209-2.773-1-3.023-2.698c-0.25-1.701,0.697-3.247,2.12-3.456C89.589,41.261,90.941,42.469,91.191,44.17z"/>
	</g>
	<g>
		<defs>
			<circle id="SVGID_21_" cx="50.334" cy="49.667" r="50"/>
		</defs>
		<clipPath id="SVGID_22_">
			<use xlink:href="#SVGID_21_"  style="overflow:visible;"/>
		</clipPath>
		<path style="clip-path:url(#SVGID_22_);fill:#E5C4A3;" d="M89.596,40.103c0.885,12.818-9.568,23.842-14.324,24.542
			c-4.754,0.699-17.93-6.854-20.771-19.386c-3.192-14.106,3.759-22.662,14.365-24.22C79.479,19.479,88.6,25.674,89.596,40.103z"/>
	</g>
	<g>
		<defs>
			<circle id="SVGID_23_" cx="50.334" cy="49.667" r="50"/>
		</defs>
		<clipPath id="SVGID_24_">
			<use xlink:href="#SVGID_23_"  style="overflow:visible;"/>
		</clipPath>
		<path style="clip-path:url(#SVGID_24_);fill:#736357;" d="M54.521,33.064c0,0,7.949-5.33,14.986-6.363
			c10.151-1.492,12.876,1.404,14.971-1.111c2.095-2.516-2.209-7.494-3.986-8.254c-1.777-0.76-6.999-0.989-12.74-0.145
			c-5.742,0.843-10.286,4.096-12.23,7.179C52.898,28.526,54.521,33.064,54.521,33.064z"/>
	</g>
	<g>
		<defs>
			<circle id="SVGID_25_" cx="50.334" cy="49.667" r="50"/>
		</defs>
		<clipPath id="SVGID_26_">
			<use xlink:href="#SVGID_25_"  style="overflow:visible;"/>
		</clipPath>
		<path style="clip-path:url(#SVGID_26_);fill:#736357;" d="M83.539,21.559c0,0,5.6-0.069,5.382,19.8
			c-0.661-7.646-2.131-8.629-3.735-11.819C83.58,26.35,82.586,21.528,83.539,21.559z"/>
	</g>
	<g>
		<defs>
			<circle id="SVGID_27_" cx="50.334" cy="49.667" r="50"/>
		</defs>
		<clipPath id="SVGID_28_">
			<use xlink:href="#SVGID_27_"  style="overflow:visible;"/>
		</clipPath>
		<path style="clip-path:url(#SVGID_28_);fill:#736357;" d="M54.135,30.333c0,0-2.17,8.518,1.342,14.952
			c-2.354-10.177,1.604-15.899,1.604-15.899L54.135,30.333z"/>
	</g>
	<g>
		<defs>
			<circle id="SVGID_29_" cx="50.334" cy="49.667" r="50"/>
		</defs>
		<clipPath id="SVGID_30_">
			<use xlink:href="#SVGID_29_"  style="overflow:visible;"/>
		</clipPath>
		<path style="clip-path:url(#SVGID_30_);fill:#AF7418;" d="M51.66,72H-0.979c-1.705,0-3.086,33.91-3.086,33.91l58.811,0.15
			C54.746,106.061,53.366,72,51.66,72z"/>
	</g>
	<g>
		<defs>
			<circle id="SVGID_31_" cx="50.334" cy="49.667" r="50"/>
		</defs>
		<clipPath id="SVGID_32_">
			<use xlink:href="#SVGID_31_"  style="overflow:visible;"/>
		</clipPath>
		<path style="clip-path:url(#SVGID_32_);fill:#FBB03B;" d="M46.801,106H2.912c-1.423,0-6.958-36.393-6.958-36.393
			c-0.174-1.438,6.065-5.635,29.387-5.635c23.323,0,28.675,4.037,28.479,5.607C53.82,69.581,48.225,106,46.801,106z"/>
	</g>
	<g>
		<defs>
			<circle id="SVGID_33_" cx="50.334" cy="49.667" r="50"/>
		</defs>
		<clipPath id="SVGID_34_">
			<use xlink:href="#SVGID_33_"  style="overflow:visible;"/>
		</clipPath>
		<g style="clip-path:url(#SVGID_34_);">
			<path style="fill:#FBB03B;" d="M65.161,104.997c0.034,0.584-0.653,1.003-1.245,1.003H51.633c-0.592,0-0.548-0.307-0.568-0.889
				L49.696,68.45c0,0,8.557,1.407,10.263,4.026C62.339,76.123,65.161,104.997,65.161,104.997z"/>
			<path style="fill:#FBB03B;" d="M-14.467,104.997c-0.034,0.584,0.643,1.003,1.224,1.003h12.361c0,0,0.01-0.307,0.031-0.889
				L0.542,68.45c0,0-8.303,1.407-9.982,4.026C-11.787,76.123-14.467,104.997-14.467,104.997z"/>
		</g>
	</g>
	<g>
		<defs>
			<circle id="SVGID_35_" cx="50.334" cy="49.667" r="50"/>
		</defs>
		<clipPath id="SVGID_36_">
			<use xlink:href="#SVGID_35_"  style="overflow:visible;"/>
		</clipPath>
		<path style="clip-path:url(#SVGID_36_);fill:#E5C4A3;" d="M36,72.953C36,74.335,35.372,76,33.975,76H16.56
			C15.161,76,14,74.335,14,72.953V52.311C14,50.932,15.161,51,16.56,51h17.415C35.372,51,36,50.932,36,52.311V72.953z"/>
	</g>
	<g>
		<defs>
			<circle id="SVGID_37_" cx="50.334" cy="49.667" r="50"/>
		</defs>
		<clipPath id="SVGID_38_">
			<use xlink:href="#SVGID_37_"  style="overflow:visible;"/>
		</clipPath>
		<path style="clip-path:url(#SVGID_38_);fill:#AF7418;" d="M21.458,74.626C17.374,71.971,13.68,60.97,13.68,60.97l-3.319,5.263
			l-0.235,14.463C10.125,80.695,18.898,77.619,21.458,74.626z"/>
	</g>
	<g>
		<defs>
			<circle id="SVGID_39_" cx="50.334" cy="49.667" r="50"/>
		</defs>
		<clipPath id="SVGID_40_">
			<use xlink:href="#SVGID_39_"  style="overflow:visible;"/>
		</clipPath>
		<path style="clip-path:url(#SVGID_40_);fill:#F7931E;" d="M21.458,74.379c-4.084-2.941-7.778-15.123-7.778-15.123l-3.319,5.829
			L8.799,76.827C8.799,76.827,18.898,77.693,21.458,74.379z"/>
	</g>
	<g>
		<defs>
			<circle id="SVGID_41_" cx="50.334" cy="49.667" r="50"/>
		</defs>
		<clipPath id="SVGID_42_">
			<use xlink:href="#SVGID_41_"  style="overflow:visible;"/>
		</clipPath>
		<path style="clip-path:url(#SVGID_42_);fill:#AF7418;" d="M29.393,74.711c3.936-2.924,7.032-14.15,7.032-14.15l3.6,5.033
			l1.747,14.371C41.771,79.965,32.115,77.525,29.393,74.711z"/>
	</g>
	<g>
		<defs>
			<circle id="SVGID_43_" cx="50.334" cy="49.667" r="50"/>
		</defs>
		<clipPath id="SVGID_44_">
			<use xlink:href="#SVGID_43_"  style="overflow:visible;"/>
		</clipPath>
		<path style="clip-path:url(#SVGID_44_);fill:#F7931E;" d="M29.393,74.473c3.936-3.238,7.032-15.671,7.032-15.671l3.6,5.574
			l2.127,11.604C42.151,75.98,32.115,77.59,29.393,74.473z"/>
	</g>
	<g>
		<defs>
			<circle id="SVGID_45_" cx="50.334" cy="49.667" r="50"/>
		</defs>
		<clipPath id="SVGID_46_">
			<use xlink:href="#SVGID_45_"  style="overflow:visible;"/>
		</clipPath>
		<path style="clip-path:url(#SVGID_46_);fill:#AD9279;" d="M44.689,40.715c-1.05,14.827-12.625,25.693-18.812,25.693
			S8.12,55.542,7.069,40.715C5.89,24.024,14.505,15.396,25.878,15.396C37.253,15.396,45.869,24.023,44.689,40.715z"/>
	</g>
	<g>
		<defs>
			<circle id="SVGID_47_" cx="50.334" cy="49.667" r="50"/>
		</defs>
		<clipPath id="SVGID_48_">
			<use xlink:href="#SVGID_47_"  style="overflow:visible;"/>
		</clipPath>
		<ellipse style="clip-path:url(#SVGID_48_);fill:#E5C4A3;" cx="39.249" cy="38.983" rx="8.706" ry="10.402"/>
	</g>
	<g>
		<defs>
			<circle id="SVGID_49_" cx="50.334" cy="49.667" r="50"/>
		</defs>
		<clipPath id="SVGID_50_">
			<use xlink:href="#SVGID_49_"  style="overflow:visible;"/>
		</clipPath>
		<path style="clip-path:url(#SVGID_50_);fill:#E5C4A3;" d="M20.938,38.983c0,5.743-3.896,10.402-8.708,10.402
			c-4.807,0-8.709-4.66-8.709-10.402c0-5.742,3.902-10.403,8.709-10.403C17.042,28.581,20.938,33.241,20.938,38.983z"/>
	</g>
	<g>
		<defs>
			<circle id="SVGID_51_" cx="50.334" cy="49.667" r="50"/>
		</defs>
		<clipPath id="SVGID_52_">
			<use xlink:href="#SVGID_51_"  style="overflow:visible;"/>
		</clipPath>
		<path style="clip-path:url(#SVGID_52_);fill:#E5C4A3;" d="M10.859,44.703c0,1.924-1.31,3.487-2.918,3.487
			c-1.612,0-2.917-1.562-2.917-3.487c0-1.928,1.305-3.489,2.917-3.489C9.55,41.214,10.859,42.774,10.859,44.703z"/>
	</g>
	<g>
		<defs>
			<circle id="SVGID_53_" cx="50.334" cy="49.667" r="50"/>
		</defs>
		<clipPath id="SVGID_54_">
			<use xlink:href="#SVGID_53_"  style="overflow:visible;"/>
		</clipPath>
		<ellipse style="clip-path:url(#SVGID_54_);fill:#E5C4A3;" cx="43.965" cy="44.703" rx="2.917" ry="3.487"/>
	</g>
	<g>
		<defs>
			<circle id="SVGID_55_" cx="50.334" cy="49.667" r="50"/>
		</defs>
		<clipPath id="SVGID_56_">
			<use xlink:href="#SVGID_55_"  style="overflow:visible;"/>
		</clipPath>
		<path style="clip-path:url(#SVGID_56_);fill:#E5C4A3;" d="M45.771,39.93c-1.107,14.367-14.504,24.897-19.894,24.897
			S7.099,54.297,5.988,39.93c-1.244-16.173,7.865-24.534,19.89-24.534C37.907,15.396,47.018,23.756,45.771,39.93z"/>
	</g>
	<g>
		<defs>
			<circle id="SVGID_57_" cx="50.334" cy="49.667" r="50"/>
		</defs>
		<clipPath id="SVGID_58_">
			<use xlink:href="#SVGID_57_"  style="overflow:visible;"/>
		</clipPath>
		<path style="clip-path:url(#SVGID_58_);fill:#534741;" d="M8.002,26.402c0,0,9.688-4.618,17.667-4.618
			c11.507,0,14.058,3.657,16.792,1.208c2.733-2.45-1.231-8.676-3.079-9.808c-1.847-1.134-7.604-2.238-14.112-2.238
			s-12.083,2.869-14.743,5.972C6.94,21.102,8.002,26.402,8.002,26.402z"/>
	</g>
	<g>
		<defs>
			<circle id="SVGID_59_" cx="50.334" cy="49.667" r="50"/>
		</defs>
		<clipPath id="SVGID_60_">
			<use xlink:href="#SVGID_59_"  style="overflow:visible;"/>
		</clipPath>
		<path style="clip-path:url(#SVGID_60_);fill:#534741;" d="M42.075,18.366c0,0,6.224,0.836,2.743,22.848
			c0.515-8.592-0.957-9.922-2.219-13.724C41.337,23.688,41.022,18.176,42.075,18.366z"/>
	</g>
	<g>
		<defs>
			<circle id="SVGID_61_" cx="50.334" cy="49.667" r="50"/>
		</defs>
		<clipPath id="SVGID_62_">
			<use xlink:href="#SVGID_61_"  style="overflow:visible;"/>
		</clipPath>
		<path style="clip-path:url(#SVGID_62_);fill:#534741;" d="M8.017,23.308c0,0-3.795,9.098-0.947,16.81
			c-0.954-11.677,4.369-17.38,4.369-17.38L8.017,23.308z"/>
	</g>
</g>
</svg>
